<svg id="Capa_1" data-name="Capa 1" xmlns="http://www.w3.org/2000/svg" viewBox="0 0 303.49 78.85"><defs><style>.cls-1{fill:#0854a1;}.cls-2{fill:#eb6515;}.cls-3{fill:#ea7a1d;}.cls-4{fill:#f49824;}.cls-5{fill:#fff;}</style></defs><title>Mesa de trabajo 9</title><path class="cls-1" d="M42.6,10.75,61.41,24.67a8.21,8.21,0,0,1,3.42,6.62v3.64L66,34.28c4-2.71,6.91-5,6.87-9.17,0,0,0-.09,0-.13s-.06-.28-.1-.42a11.07,11.07,0,0,0-2.07-2.68,12.52,12.52,0,0,0-1.11-.94L44.45,2.37A11.89,11.89,0,0,0,41.82.9a12.29,12.29,0,0,0-2.5-.72,10.42,10.42,0,0,1-.42,3.27,14.17,14.17,0,0,1-1.59,3.49.05.05,0,0,1,0,0,13.69,13.69,0,0,1-1.57,2.07A8.42,8.42,0,0,1,37.05,9,9.41,9.41,0,0,1,42.6,10.75Z"/><path class="cls-2" d="M62.83,59.86a8.89,8.89,0,0,1-2.53,2.43c2.44,2.28,4.66,3.87,7.49,3.82a7.66,7.66,0,0,0,2-.26,6.87,6.87,0,0,0,4-2.58c0-.1,0-.21,0-.31h0c0,.1,0,.2,0,.3s0,0,0,0a10.15,10.15,0,0,0,.29-2.42v-31c0-.35,0-.69,0-1,0,.2,0,.41-.07.6-.54,3.39-3.24,5.43-6.78,7.83l-2.29,1.34-.08.06v16A8.08,8.08,0,0,1,62.83,59.86Z"/><path class="cls-1" d="M6.89,26.29c.25.21.46.42.69.63a13.29,13.29,0,0,1,1.71,1.94,8.39,8.39,0,0,1,1.29-2,8.9,8.9,0,0,1,1.18-1.11,8,8,0,0,1,.87-.76L31.44,10.8a7.75,7.75,0,0,1,.9-.59l.42-.56a20.84,20.84,0,0,0,2.57-4.92A14.63,14.63,0,0,0,36.2,0a12.39,12.39,0,0,0-6.64,2.44L4.47,21.36A12,12,0,0,0,2.29,23.5l-.16.22a12.07,12.07,0,0,1,3.7,1.77C6.18,25.74,6.53,26,6.89,26.29Z"/><path class="cls-3" d="M72.53,66.36c0-.08.11-.16.15-.24a6.9,6.9,0,0,1-4,2.59,8.28,8.28,0,0,1-2,.26,7.33,7.33,0,0,1-1.63-.16c-2.57-.56-4.72-2.52-7.22-5l-.32-.37a9.64,9.64,0,0,1-2.22.28H17.54a9.38,9.38,0,0,1-4.78-1.31c-.24.25-.48.51-.69.75C9.83,65.76,8.77,68,8.68,69.67a3.43,3.43,0,0,0,.44,1.93,12.48,12.48,0,0,0,2.23.3h.12a13.92,13.92,0,0,0,1.47-.2,10,10,0,0,1-1.47.2h-.09c.17,0,.33,0,.5,0H62.22a12.47,12.47,0,0,0,6.14-1.6A12.93,12.93,0,0,0,70,69.2a11.58,11.58,0,0,0,1.58-1.55l.31-.39.24-.32C72.29,66.75,72.41,66.55,72.53,66.36Z"/><path class="cls-4" d="M9.24,61.69c.36-.41.76-.84,1.18-1.27L10.11,60a8.07,8.07,0,0,1-1.56-4.75V32.21c0-.08,0-.16,0-.24a15.81,15.81,0,0,0-2.08-2.1l-.12-.1c-.42-.34-.83-.65-1.24-.93A13.89,13.89,0,0,0,.57,26.7,10.64,10.64,0,0,0,0,30.13V60.81a10.61,10.61,0,0,0,1.24,4.94A12,12,0,0,0,5.15,70h0l.16-.14c0,.07,0,.13-.07.19l.16.08c.26.15.52.3.79.44s.5.25.75.35a3.16,3.16,0,0,1-1.11-2.74C6,66.48,7,64.27,9.24,61.69Z"/><path class="cls-5" d="M134.88,26.4a1.55,1.55,0,0,1,.41,1.13V61.86a1.42,1.42,0,0,1-1.54,1.54h-5a1.42,1.42,0,0,1-1.54-1.54v-13H109.7v13a1.41,1.41,0,0,1-1.53,1.54h-5a1.54,1.54,0,0,1-1.13-.41,1.55,1.55,0,0,1-.41-1.13V27.53a1.55,1.55,0,0,1,.41-1.13,1.54,1.54,0,0,1,1.13-.41h5a1.41,1.41,0,0,1,1.53,1.54V41.86h17.55V27.53A1.42,1.42,0,0,1,128.79,26h5A1.55,1.55,0,0,1,134.88,26.4Z"/><path class="cls-5" d="M151.92,61.5a20.18,20.18,0,0,1-7.37-7.11,18.79,18.79,0,0,1,0-19.39,19.5,19.5,0,0,1,7.34-7.11,20.09,20.09,0,0,1,10.08-2.61,20.44,20.44,0,0,1,10.11,2.58A19.88,19.88,0,0,1,179.44,35a18.68,18.68,0,0,1,2.71,9.72,18.48,18.48,0,0,1-2.71,9.72,19.66,19.66,0,0,1-7.37,7.11,20.36,20.36,0,0,1-10.13,2.61A20,20,0,0,1,151.92,61.5Zm4-27.22a12.67,12.67,0,0,0-4.45,4.46,11.6,11.6,0,0,0,0,11.89,12.67,12.67,0,0,0,4.4,4.48,11.39,11.39,0,0,0,6,1.69,11.6,11.6,0,0,0,6-1.69,12.54,12.54,0,0,0,4.45-4.5,11.81,11.81,0,0,0,0-11.87A12.64,12.64,0,0,0,168,34.28a12.09,12.09,0,0,0-6.09-1.63A11.51,11.51,0,0,0,156,34.28Z"/><path class="cls-5" d="M227.08,26.35a.73.73,0,0,1,.64.36,1.81,1.81,0,0,1,.23,1V61.86a1.42,1.42,0,0,1-1.54,1.54h-5.06a1.54,1.54,0,0,1-1.13-.41,1.55,1.55,0,0,1-.41-1.13V45.54l-10.39,12a1.32,1.32,0,0,1-1.07.62,1.54,1.54,0,0,1-1.07-.62l-10.39-12V61.86a1.55,1.55,0,0,1-.41,1.13,1.54,1.54,0,0,1-1.13.41h-5.06a1.42,1.42,0,0,1-1.54-1.54V27.68a1.81,1.81,0,0,1,.23-1,.73.73,0,0,1,.64-.36,1.42,1.42,0,0,1,1,.62l17.7,20,17.7-20A1.55,1.55,0,0,1,227.08,26.35Z"/><path class="cls-5" d="M244.57,41.34H261a1.53,1.53,0,0,1,1.12.41,1.51,1.51,0,0,1,.41,1.13v4a1.51,1.51,0,0,1-.41,1.13,1.53,1.53,0,0,1-1.12.41H244.57v8H263.3a1.42,1.42,0,0,1,1.54,1.53v3.94a1.42,1.42,0,0,1-1.54,1.54H238A1.54,1.54,0,0,1,236.9,63a1.55,1.55,0,0,1-.41-1.13V27.53a1.55,1.55,0,0,1,.41-1.13A1.54,1.54,0,0,1,238,26H263.3a1.42,1.42,0,0,1,1.54,1.54v3.94A1.42,1.42,0,0,1,263.3,33H244.57Z"/><path class="cls-5" d="M278,28.28a.69.69,0,0,1,.52-.19h9.11a.64.64,0,0,1,.71.71c0,.19,0,.42,0,.69l0,1a7.71,7.71,0,0,1-1.45,3.9,8.75,8.75,0,0,1-3.28,2.73,10.09,10.09,0,0,1-4.35,1,9.41,9.41,0,0,1-4.67-1.2,9.23,9.23,0,0,1-3.44-3.3,8.7,8.7,0,0,1,0-9,9.23,9.23,0,0,1,3.42-3.29,9.53,9.53,0,0,1,12.1,2.36.68.68,0,0,1,.19.45.64.64,0,0,1-.38.54l-2,1.17a.93.93,0,0,1-.4.12.84.84,0,0,1-.6-.31,6.8,6.8,0,0,0-1.94-1.55,4.86,4.86,0,0,0-2.26-.57,5.53,5.53,0,0,0-2.8.76,6,6,0,0,0-2.08,2.07,5.41,5.41,0,0,0,0,5.53,5.65,5.65,0,0,0,2.07,2,5.23,5.23,0,0,0,2.81.79,5.92,5.92,0,0,0,4-1.64,3.77,3.77,0,0,0,1.05-1.67h-5.78a.69.69,0,0,1-.52-.19.68.68,0,0,1-.19-.52V28.8A.69.69,0,0,1,278,28.28Z"/><path class="cls-5" d="M279.2,38.6a10,10,0,0,1-4.92-1.27,9.85,9.85,0,0,1-3.62-3.46,9.19,9.19,0,0,1-1.33-4.78,9.07,9.07,0,0,1,1.33-4.76,9.62,9.62,0,0,1,3.61-3.47,10.05,10.05,0,0,1,9.28-.28A10,10,0,0,1,287,23.33a1.23,1.23,0,0,1,.3.77,1.13,1.13,0,0,1-.61,1l-2,1.17A1.17,1.17,0,0,1,283,26a6.36,6.36,0,0,0-1.82-1.44,4.63,4.63,0,0,0-4.56.17,5.43,5.43,0,0,0-1.91,1.9,4.89,4.89,0,0,0,0,5,5.24,5.24,0,0,0,1.89,1.88,5,5,0,0,0,4.53.32,5.47,5.47,0,0,0,1.7-1.1,3.92,3.92,0,0,0,.64-.81h-5a1.2,1.2,0,0,1-.87-.33,1.19,1.19,0,0,1-.34-.88V28.8a1.16,1.16,0,0,1,1.21-1.21h9.11a1.14,1.14,0,0,1,1.21,1.2,7,7,0,0,1,0,.7l0,1a8.22,8.22,0,0,1-1.55,4.17,9.31,9.31,0,0,1-3.46,2.89A10.7,10.7,0,0,1,279.2,38.6Zm0-18a8.9,8.9,0,0,0-4.44,1.15,8.72,8.72,0,0,0-3.24,3.11,8.2,8.2,0,0,0,0,8.51,8.74,8.74,0,0,0,3.25,3.11,9.45,9.45,0,0,0,8.56.21,8.35,8.35,0,0,0,3.09-2.57,7.26,7.26,0,0,0,1.36-3.65l.05-1c0-.23,0-.45,0-.63s-.05-.25-.21-.25h-9.11a.25.25,0,0,0-.17,0,.32.32,0,0,0,0,.17v1.88a.32.32,0,0,0,0,.17.25.25,0,0,0,.17,0h6.45l-.19.64a4.27,4.27,0,0,1-1.18,1.89,6.11,6.11,0,0,1-2,1.3,5.94,5.94,0,0,1-5.42-.38,6.14,6.14,0,0,1-2.24-2.23,5.89,5.89,0,0,1,0-6,6.41,6.41,0,0,1,2.26-2.25,5.69,5.69,0,0,1,5.54-.2,7.2,7.2,0,0,1,2.09,1.66s.14.14.22.14l.18-.07,2-1.15c.11-.06.13-.11.13-.12h0a.43.43,0,0,0-.08-.13,9,9,0,0,0-3.11-2.48A8.79,8.79,0,0,0,279.2,20.58Z"/><path class="cls-5" d="M302.8,23.45a.7.7,0,0,1-.52.2H298v13.4a.68.68,0,0,1-.19.52.69.69,0,0,1-.52.19h-2.35a.7.7,0,0,1-.53-.19.68.68,0,0,1-.19-.52V23.65h-4.35a.7.7,0,0,1-.52-.2.68.68,0,0,1-.19-.52V21.1a.66.66,0,0,1,.71-.71h12.46a.66.66,0,0,1,.71.71v1.83A.68.68,0,0,1,302.8,23.45Z"/><path class="cls-5" d="M297.24,38.26h-2.35a1.15,1.15,0,0,1-1.22-1.21V24.15h-3.85a1.2,1.2,0,0,1-.87-.34,1.17,1.17,0,0,1-.34-.88V21.1a1.16,1.16,0,0,1,1.21-1.21h12.46a1.15,1.15,0,0,1,1.21,1.21v1.83a1.19,1.19,0,0,1-.34.88h0a1.2,1.2,0,0,1-.87.34h-3.83v12.9a1.19,1.19,0,0,1-.34.88A1.2,1.2,0,0,1,297.24,38.26Zm-7.42-17.37a.17.17,0,0,0-.21.21v1.83c0,.09,0,.14,0,.17a.25.25,0,0,0,.17,0h4.85v13.9a.31.31,0,0,0,0,.17.28.28,0,0,0,.18,0h2.35a.25.25,0,0,0,.17,0,.31.31,0,0,0,0-.17V23.15h4.83a.22.22,0,0,0,.17,0,.25.25,0,0,0,0-.17V21.1a.25.25,0,0,0,0-.17s-.05,0-.17,0Z"/></svg>