<svg viewBox="0 0 491.34 168.66" xmlns="http://www.w3.org/2000/svg"><g fill="#fff"><path d="m178 13.46h3v141.73h-3z"/><path d="m289.42 41.81h-78.11a3.46 3.46 0 0 0 -3.47 3.46v13.5a3.46 3.46 0 0 0 3.47 3.46h28.84v61a3.46 3.46 0 0 0 3.46 3.46h13.51a3.46 3.46 0 0 0 3.46-3.46v-61h28.84a3.46 3.46 0 0 0 3.46-3.46v-13.5a3.46 3.46 0 0 0 -3.46-3.46z"/><rect height="85.07" rx="5.67" width="20.48" x="310.99" y="41.64"/><path d="m396.3 106.27h-26.72v-61.27a3.15 3.15 0 0 0 -3.15-3.14h-14.15a3.15 3.15 0 0 0 -3.14 3.14v78.62a3.15 3.15 0 0 0 3.14 3.14h44a3.15 3.15 0 0 0 3.15-3.14v-14.2a3.15 3.15 0 0 0 -3.13-3.15z"/><path d="m448.8 41.64a42.54 42.54 0 1 0 42.54 42.53 42.53 42.53 0 0 0 -42.54-42.53zm0 64.59a22.06 22.06 0 1 1 22.06-22.06 22.06 22.06 0 0 1 -22.06 22.06z"/><path d="m142.71 36-58.71-33.76a16.82 16.82 0 0 0 -16.78 0l-58.78 33.76a16.83 16.83 0 0 0 -8.44 14.61v67.44a16.83 16.83 0 0 0 8.44 14.59l58.75 33.78a16.82 16.82 0 0 0 16.78 0l58.74-33.78a16.83 16.83 0 0 0 8.44-14.59v-67.44a16.83 16.83 0 0 0 -8.44-14.61zm-24.61 27.5a3.47 3.47 0 0 1 -3.47 3.5h-28.84v61a3.46 3.46 0 0 1 -3.46 3.46h-13.51a3.46 3.46 0 0 1 -3.46-3.46v-61h-28.84a3.46 3.46 0 0 1 -3.46-3.47v-13.53a3.46 3.46 0 0 1 3.46-3.46h78.11a3.47 3.47 0 0 1 3.47 3.46z"/></g></svg>