<svg xmlns="http://www.w3.org/2000/svg" viewBox="0 0 491.34 168.66"><defs><style>.cls-1{fill:#322470;}</style></defs><g id="Layer_2" data-name="Layer 2"><g id="Logo"><rect class="cls-1" x="178" y="13.46" width="3" height="141.73"/><path class="cls-1" d="M289.42,41.81H211.31a3.46,3.46,0,0,0-3.47,3.46v13.5a3.46,3.46,0,0,0,3.47,3.46h28.84v61a3.46,3.46,0,0,0,3.46,3.46h13.51a3.46,3.46,0,0,0,3.46-3.46v-61h28.84a3.46,3.46,0,0,0,3.46-3.46V45.27A3.46,3.46,0,0,0,289.42,41.81Z"/><rect class="cls-1" x="310.99" y="41.64" width="20.48" height="85.07" rx="5.67"/><path class="cls-1" d="M396.3,106.27H369.58V45a3.15,3.15,0,0,0-3.15-3.14H352.28A3.15,3.15,0,0,0,349.14,45v78.62a3.15,3.15,0,0,0,3.14,3.14h44a3.15,3.15,0,0,0,3.15-3.14V109.42A3.15,3.15,0,0,0,396.3,106.27Z"/><path class="cls-1" d="M448.8,41.64a42.54,42.54,0,1,0,42.54,42.53A42.53,42.53,0,0,0,448.8,41.64Zm0,64.59a22.06,22.06,0,1,1,22.06-22.06A22.06,22.06,0,0,1,448.8,106.23Z"/><path class="cls-1" d="M142.71,36,84,2.24a16.82,16.82,0,0,0-16.78,0L8.44,36A16.83,16.83,0,0,0,0,50.61v67.44a16.83,16.83,0,0,0,8.44,14.59l58.75,33.78a16.82,16.82,0,0,0,16.78,0l58.74-33.78a16.83,16.83,0,0,0,8.44-14.59V50.61A16.83,16.83,0,0,0,142.71,36ZM118.1,63.5A3.47,3.47,0,0,1,114.63,67H85.79v61a3.46,3.46,0,0,1-3.46,3.46H68.82A3.46,3.46,0,0,1,65.36,128V67H36.52a3.46,3.46,0,0,1-3.46-3.47V50a3.46,3.46,0,0,1,3.46-3.46h78.11A3.47,3.47,0,0,1,118.1,50Z"/></g></g></svg>