<svg id="Capa_1" data-name="Capa 1" xmlns="http://www.w3.org/2000/svg" viewBox="0 0 205.81 197.62"><defs><style>.cls-1{fill:#0854a1;}.cls-2{fill:#eb6515;}.cls-3{fill:#ea7a1d;}.cls-4{fill:#f49824;}.cls-5{fill:#1b2f4a;}</style></defs><title>Mesa de trabajo 2</title><path class="cls-1" d="M112.1,17.86,143.34,41A13.63,13.63,0,0,1,149,52V58c1.17-.7,1.85-1.09,1.85-1.09,6.63-4.49,11.49-8.22,11.42-15.23,0-.07,0-.14,0-.22,0-.24-.1-.46-.15-.69a18.72,18.72,0,0,0-3.45-4.46,20,20,0,0,0-1.85-1.55L115.17,3.94a20.41,20.41,0,0,0-4.38-2.45,21,21,0,0,0-4.15-1.2A16.9,16.9,0,0,1,106,5.73a24.17,24.17,0,0,1-2.63,5.8s0,0,0,.07a23,23,0,0,1-2.6,3.43,14.75,14.75,0,0,1,2.21-.17A15.57,15.57,0,0,1,112.1,17.86Z"/><path class="cls-2" d="M145.7,99.42a14.68,14.68,0,0,1-4.2,4c4,3.8,7.74,6.45,12.44,6.36a13.23,13.23,0,0,0,3.26-.43,11.56,11.56,0,0,0,6.7-4.28c0-.18.06-.36.07-.52h0c0,.16-.05.33-.07.51a.43.43,0,0,1,0-.07,17.28,17.28,0,0,0,.48-4V49.46c0-.58,0-1.15-.09-1.71,0,.34-.07.68-.12,1-.88,5.61-5.37,9-11.25,13L149.16,64l-.14.08V90.63A13.44,13.44,0,0,1,145.7,99.42Z"/><path class="cls-1" d="M52.79,43.67c.41.34.76.69,1.14,1a22.15,22.15,0,0,1,2.84,3.22,13.8,13.8,0,0,1,2.14-3.33,14.82,14.82,0,0,1,2-1.84,14.55,14.55,0,0,1,1.45-1.26L93.55,17.94a16.07,16.07,0,0,1,1.5-1c.23-.31.47-.61.7-.94A34,34,0,0,0,100,7.86,24,24,0,0,0,101.46,0a20.57,20.57,0,0,0-11,4.05L48.76,35.47A20.41,20.41,0,0,0,45.14,39c-.09.11-.17.23-.26.36a20,20,0,0,1,6.14,3C51.6,42.75,52.19,43.18,52.79,43.67Z"/><path class="cls-3" d="M161.81,110.22c.08-.13.18-.26.26-.4a11.51,11.51,0,0,1-6.71,4.3,13.26,13.26,0,0,1-3.26.44,12.1,12.1,0,0,1-2.71-.28c-4.28-.92-7.85-4.17-12-8.26l-.55-.62a15.39,15.39,0,0,1-3.68.47H70.48a15.52,15.52,0,0,1-8-2.18c-.39.42-.8.85-1.15,1.26-3.71,4.27-5.47,8-5.62,10.77a5.53,5.53,0,0,0,.73,3.2,20.36,20.36,0,0,0,3.7.5h.19c.79-.07,1.6-.17,2.45-.33a17.12,17.12,0,0,1-2.45.33h-.14c.28,0,.55.07.83.07h83.62a20.77,20.77,0,0,0,10.2-2.66,21.34,21.34,0,0,0,2.76-1.89,19.38,19.38,0,0,0,2.63-2.57l.52-.65.39-.54C161.41,110.87,161.62,110.55,161.81,110.22Z"/><path class="cls-4" d="M56.69,102.47c.59-.68,1.26-1.39,2-2.11-.18-.22-.36-.43-.52-.65a13.41,13.41,0,0,1-2.59-7.89V53.49c0-.13,0-.26,0-.39a25.79,25.79,0,0,0-3.46-3.48l-.2-.18c-.69-.56-1.38-1.07-2-1.54a23.46,23.46,0,0,0-7.56-3.56,17.57,17.57,0,0,0-.95,5.7v51a17.55,17.55,0,0,0,2.06,8.2,19.65,19.65,0,0,0,6.5,7l.05,0,.25-.23c0,.11-.07.21-.1.31l.25.14q.65.38,1.32.72c.41.21.82.41,1.25.59a5.18,5.18,0,0,1-1.85-4.55C51.22,110.42,53,106.75,56.69,102.47Z"/><path class="cls-5" d="M37.2,145.18a1.53,1.53,0,0,1,.41,1.12v34.34a1.53,1.53,0,0,1-.41,1.12,1.55,1.55,0,0,1-1.13.41h-5a1.55,1.55,0,0,1-1.13-.41,1.53,1.53,0,0,1-.41-1.12v-13H12v13a1.49,1.49,0,0,1-.41,1.12,1.51,1.51,0,0,1-1.12.41h-5a1.54,1.54,0,0,1-1.13-.41A1.53,1.53,0,0,1,4,180.64V146.3a1.53,1.53,0,0,1,.41-1.12,1.54,1.54,0,0,1,1.13-.41h5a1.51,1.51,0,0,1,1.12.41A1.49,1.49,0,0,1,12,146.3v14.33H29.57V146.3a1.53,1.53,0,0,1,.41-1.12,1.55,1.55,0,0,1,1.13-.41h5A1.55,1.55,0,0,1,37.2,145.18Z"/><path class="cls-5" d="M54.23,180.28a20.15,20.15,0,0,1-7.36-7.11,18.74,18.74,0,0,1,0-19.4,19.5,19.5,0,0,1,7.34-7.11,20.09,20.09,0,0,1,10.08-2.61,20.34,20.34,0,0,1,10.11,2.59,19.92,19.92,0,0,1,7.39,7.08,18.8,18.8,0,0,1,0,19.45,19.66,19.66,0,0,1-7.37,7.11,20.36,20.36,0,0,1-10.13,2.61A20,20,0,0,1,54.23,180.28Zm4.05-27.22a12.48,12.48,0,0,0-4.45,4.45,11.6,11.6,0,0,0,0,11.89,12.59,12.59,0,0,0,4.4,4.48,11.3,11.3,0,0,0,6,1.69,11.51,11.51,0,0,0,6-1.69,12.39,12.39,0,0,0,4.45-4.5,11.81,11.81,0,0,0,0-11.87,12.61,12.61,0,0,0-4.38-4.45,12.1,12.1,0,0,0-6.09-1.64A11.52,11.52,0,0,0,58.28,153.06Z"/><path class="cls-5" d="M129.4,145.13a.74.74,0,0,1,.64.35,1.84,1.84,0,0,1,.23,1v34.18a1.53,1.53,0,0,1-.41,1.12,1.55,1.55,0,0,1-1.13.41h-5.06a1.42,1.42,0,0,1-1.54-1.53V164.31l-10.39,12a1.3,1.3,0,0,1-1.07.61,1.56,1.56,0,0,1-1.08-.61l-10.38-12v16.33a1.42,1.42,0,0,1-1.54,1.53H92.61a1.42,1.42,0,0,1-1.54-1.53V146.46a1.84,1.84,0,0,1,.23-1,.74.74,0,0,1,.64-.35,1.42,1.42,0,0,1,1,.61l17.7,19.95,17.7-19.95A1.53,1.53,0,0,1,129.4,145.13Z"/><path class="cls-5" d="M146.89,160.12h16.38a1.42,1.42,0,0,1,1.53,1.53v4a1.42,1.42,0,0,1-1.53,1.54H146.89v8h18.73a1.55,1.55,0,0,1,1.13.41,1.53,1.53,0,0,1,.4,1.13v3.94a1.52,1.52,0,0,1-.4,1.12,1.55,1.55,0,0,1-1.13.41H140.34a1.42,1.42,0,0,1-1.53-1.53V146.3a1.42,1.42,0,0,1,1.53-1.53h25.28a1.55,1.55,0,0,1,1.13.41,1.52,1.52,0,0,1,.4,1.12v3.94a1.53,1.53,0,0,1-.4,1.13,1.55,1.55,0,0,1-1.13.41H146.89Z"/><path class="cls-5" d="M180.28,147.05a.74.74,0,0,1,.52-.19h9.11c.46,0,.69.24.71.72,0,.19,0,.42,0,.69l0,1a7.64,7.64,0,0,1-1.45,3.89,8.87,8.87,0,0,1-3.28,2.74,10.08,10.08,0,0,1-4.35,1,9.41,9.41,0,0,1-4.67-1.2,9.28,9.28,0,0,1-3.44-3.29,8.62,8.62,0,0,1-1.26-4.52,8.52,8.52,0,0,1,1.26-4.5,9.08,9.08,0,0,1,3.42-3.29,9.54,9.54,0,0,1,8.82-.27,9.54,9.54,0,0,1,3.28,2.62.72.72,0,0,1,.19.45.65.65,0,0,1-.38.55l-2,1.16a.93.93,0,0,1-.4.12.81.81,0,0,1-.6-.31,6.67,6.67,0,0,0-1.95-1.54,4.79,4.79,0,0,0-2.25-.57,5.43,5.43,0,0,0-2.8.76,5.81,5.81,0,0,0-2.08,2.07,5.39,5.39,0,0,0,0,5.52,5.68,5.68,0,0,0,2.07,2.06,5.31,5.31,0,0,0,2.81.78,5.53,5.53,0,0,0,2.16-.44,5.68,5.68,0,0,0,1.85-1.2,3.8,3.8,0,0,0,1.05-1.66H180.8a.69.69,0,0,1-.52-.19.7.7,0,0,1-.19-.53v-1.87A.72.72,0,0,1,180.28,147.05Z"/><path class="cls-5" d="M181.52,157.37a10,10,0,0,1-4.92-1.26,9.88,9.88,0,0,1-3.62-3.47,9.19,9.19,0,0,1-1.33-4.78A9.1,9.1,0,0,1,173,143.1a9.7,9.7,0,0,1,3.61-3.47,10,10,0,0,1,12.73,2.48,1.2,1.2,0,0,1,.3.76,1.12,1.12,0,0,1-.61,1L187,145a1.18,1.18,0,0,1-1.61-.29,6.36,6.36,0,0,0-1.82-1.44,4.65,4.65,0,0,0-4.56.18,5.4,5.4,0,0,0-1.91,1.89,4.91,4.91,0,0,0,0,5,5.24,5.24,0,0,0,1.89,1.88,5,5,0,0,0,4.53.31,5.47,5.47,0,0,0,1.7-1.1,4.24,4.24,0,0,0,.64-.8h-5a1.16,1.16,0,0,1-1.21-1.22v-1.87a1.17,1.17,0,0,1,.34-.88,1.2,1.2,0,0,1,.87-.34h9.11a1.14,1.14,0,0,1,1.21,1.2c0,.18,0,.42,0,.71l0,1a8.25,8.25,0,0,1-1.55,4.17,9.4,9.4,0,0,1-3.46,2.89A10.69,10.69,0,0,1,181.52,157.37Zm0-18a8.9,8.9,0,0,0-4.44,1.15,8.67,8.67,0,0,0-3.24,3.12,8.18,8.18,0,0,0,0,8.5,8.74,8.74,0,0,0,3.25,3.11,9.42,9.42,0,0,0,8.56.21,8.35,8.35,0,0,0,3.09-2.57,7.26,7.26,0,0,0,1.36-3.65l0-1a5.92,5.92,0,0,0,0-.62c0-.26-.05-.26-.21-.26H180.8a.25.25,0,0,0-.17,0s0,.08,0,.17v1.87c0,.09,0,.15,0,.17a.25.25,0,0,0,.17,0h6.44l-.18.64a4.24,4.24,0,0,1-1.18,1.88,6.41,6.41,0,0,1-2,1.31,6,6,0,0,1-5.42-.39,6.14,6.14,0,0,1-2.24-2.23,5.87,5.87,0,0,1-.83-3,5.94,5.94,0,0,1,.83-3,6.38,6.38,0,0,1,2.26-2.24,5.66,5.66,0,0,1,5.54-.21,7.37,7.37,0,0,1,2.09,1.66.37.37,0,0,0,.22.14.52.52,0,0,0,.18-.06l2-1.16c.11-.06.13-.11.13-.11h0a.39.39,0,0,0-.08-.14,9.09,9.09,0,0,0-3.11-2.48A8.93,8.93,0,0,0,181.52,139.35Z"/><path class="cls-5" d="M205.12,142.23a.69.69,0,0,1-.52.19h-4.33v13.41a.66.66,0,0,1-.71.71H197.2a.66.66,0,0,1-.71-.71V142.42h-4.35a.66.66,0,0,1-.71-.71v-1.83a.7.7,0,0,1,.19-.53.74.74,0,0,1,.52-.19H204.6a.74.74,0,0,1,.52.19.7.7,0,0,1,.19.53v1.83A.69.69,0,0,1,205.12,142.23Z"/><path class="cls-5" d="M199.56,157H197.2a1.16,1.16,0,0,1-.87-.34,1.2,1.2,0,0,1-.34-.87V142.92h-3.85a1.15,1.15,0,0,1-1.21-1.21v-1.83a1.21,1.21,0,0,1,.33-.88,1.25,1.25,0,0,1,.88-.34H204.6a1.2,1.2,0,0,1,.87.34,1.17,1.17,0,0,1,.34.88v1.83a1.16,1.16,0,0,1-.34.87h0a1.16,1.16,0,0,1-.87.34h-3.83v12.91a1.16,1.16,0,0,1-1.21,1.21Zm-7.42-17.38a.25.25,0,0,0-.17.05s0,.08,0,.17v1.83a.25.25,0,0,0,0,.17.32.32,0,0,0,.17,0H197v13.91a.27.27,0,0,0,0,.16.25.25,0,0,0,.17,0h2.36a.25.25,0,0,0,.17,0,.27.27,0,0,0,0-.16V141.92h4.83a.27.27,0,0,0,.17,0,.25.25,0,0,0,0-.17v-1.83c0-.09,0-.14,0-.17a.22.22,0,0,0-.17-.05Z"/></svg>